<?xml version="1.0" encoding="UTF-8"?>
<svg version="1.1" xmlns="http://www.w3.org/2000/svg" width="500" height="325">
<path d="M0 0 C5.79064427 4.40538239 9.39963194 10.35602897 10.5703125 17.5546875 C10.92535897 25.92194928 8.65182839 33.37654004 3.0625 39.69140625 C-1.29608504 43.69940945 -7.86698847 46.81640625 -13.875 46.81640625 C-13.89980683 50.99731038 -13.91791049 55.17817497 -13.92993164 59.35913086 C-13.93494565 60.78003689 -13.94175852 62.20093781 -13.95043945 63.62182617 C-13.96263388 65.66977201 -13.96825772 67.71764935 -13.97265625 69.765625 C-13.98051147 71.61160278 -13.98051147 71.61160278 -13.98852539 73.49487305 C-13.88773384 76.44383876 -13.74607172 78.99902364 -12.875 81.81640625 C-10.09837498 83.38184192 -10.09837498 83.38184192 -6.6875 84.37890625 C3.50757126 87.96997279 11.05642986 93.29323877 16 103.06640625 C18.3971814 108.17827652 19.30515963 112.13605604 19.375 117.81640625 C19.41367187 119.67265625 19.41367187 119.67265625 19.453125 121.56640625 C19.125 125.81640625 19.125 125.81640625 16.125 136.81640625 C26.025 141.76640625 35.925 146.71640625 46.125 151.81640625 C49.095 149.83640625 52.065 147.85640625 55.125 145.81640625 C60.87185698 143.90078726 67.9046368 143.59993676 73.6171875 145.7578125 C80.03404062 149.62003164 83.77427327 154.57722377 85.640625 161.81640625 C86.69419309 167.43543608 85.75258927 170.92501135 82.71484375 175.73828125 C78.82223934 180.82640298 74.52141108 184.51101623 68.125 185.81640625 C61.57513299 186.46065546 56.75909713 185.27442762 51.125 181.81640625 C46.605555 177.59170767 44.30823454 172.82877686 43.125 166.81640625 C43.07925716 164.48352133 43.07114639 162.14911803 43.125 159.81640625 C42.13242187 159.32011719 41.13984375 158.82382813 40.1171875 158.3125 C39.1413269 157.82414673 39.1413269 157.82414673 38.14575195 157.32592773 C36.70509105 156.60617099 35.26350707 155.88825917 33.82104492 155.17211914 C30.23086587 153.38668805 26.65794567 151.58055746 23.12109375 149.69140625 C22.49928223 149.36470947 21.8774707 149.0380127 21.23681641 148.70141602 C19.52418692 147.79955509 17.81852804 146.88449357 16.11328125 145.96875 C12.76515763 144.67764351 11.4598404 144.60622607 8.125 145.81640625 C5.87657397 147.09628342 5.87657397 147.09628342 3.75 148.69140625 C-2.64896338 153.32192884 -8.57491837 155.23227185 -16.3125 156.00390625 C-17.40981445 156.12668945 -17.40981445 156.12668945 -18.52929688 156.25195312 C-20.31014466 156.4498251 -22.09244927 156.63451332 -23.875 156.81640625 C-24.03120316 157.55175095 -24.18740631 158.28709564 -24.3483429 159.04472351 C-25.83260911 166.03108479 -27.31797704 173.01721054 -28.80453205 180.00308514 C-29.56844039 183.59315855 -30.33194702 187.18331634 -31.09448242 190.77368164 C-31.83266364 194.24929919 -32.57196946 197.7246759 -33.31200218 201.19989967 C-33.72644123 203.14748484 -34.13976445 205.09530735 -34.55305481 207.0431366 C-36.24593502 214.98718098 -38.02191775 222.90819223 -39.875 230.81640625 C-39.10285156 231.10128906 -38.33070313 231.38617188 -37.53515625 231.6796875 C-31.80107853 234.12993216 -28.30514871 239.24631292 -25.875 244.81640625 C-24.0053445 251.89438778 -25.24128528 258.72401768 -28.625 265.12890625 C-32.96027362 270.30714974 -37.53721338 274.25117951 -44.453125 275.15234375 C-51.86530527 275.26070896 -58.08963877 274.31745923 -63.6953125 269.1328125 C-68.37834027 263.87289 -70.73964826 258.97774365 -70.875 251.81640625 C-70.34645979 244.41684331 -68.05137411 239.14067677 -62.875 233.81640625 C-58.32103291 230.2111823 -53.76694453 227.81640625 -47.875 227.81640625 C-46.22017794 220.38249527 -44.56622331 212.94839166 -42.9128418 205.51416016 C-42.35151316 202.99067932 -41.78999362 200.46724093 -41.22827148 197.94384766 C-39.89755533 191.96567928 -38.56926347 185.98700359 -37.24755859 180.00683594 C-36.4504204 176.40033705 -35.64501471 172.79624289 -34.81884766 169.19628906 C-34.54476074 167.98038086 -34.27067383 166.76447266 -33.98828125 165.51171875 C-33.76567627 164.54508301 -33.54307129 163.57844727 -33.3137207 162.58251953 C-32.7888683 159.27334995 -32.71101986 156.16114837 -32.875 152.81640625 C-34.24846799 151.06357702 -34.24846799 151.06357702 -36.3125 150.00390625 C-41.74888309 146.43476029 -45.67751514 141.73290472 -49.875 136.81640625 C-52.39621432 137.43989983 -54.91696931 138.06515986 -57.4375 138.69140625 C-58.14197266 138.86542969 -58.84644531 139.03945312 -59.57226562 139.21875 C-60.98467322 139.5702247 -62.39527531 139.92903626 -63.80395508 140.29516602 C-65.16337971 140.63730578 -66.53094405 140.94885725 -67.9050293 141.22631836 C-70.0303685 141.65332089 -70.0303685 141.65332089 -72.875 142.81640625 C-74.20803981 145.00016745 -74.20803981 145.00016745 -74.5625 147.62890625 C-75.7997296 152.74720726 -77.11085852 155.91291791 -81.59375 159 C-86.62854452 161.88701511 -91.13921634 162.66385537 -96.875 161.81640625 C-103.49406615 159.72036864 -107.3106991 156.62135959 -110.6875 150.56640625 C-112.61283216 144.48640996 -112.87635672 139.38441403 -110.1875 133.50390625 C-107.52848128 128.77780583 -103.83315027 125.92094485 -98.875 123.81640625 C-91.8159093 122.87373265 -85.69537447 123.55726164 -79.875 127.81640625 C-75.875 132.01640625 -75.875 132.01640625 -75.875 134.81640625 C-74.01294922 134.29240234 -74.01294922 134.29240234 -72.11328125 133.7578125 C-70.47138121 133.29808049 -68.82945262 132.83845043 -67.1875 132.37890625 C-65.96256836 132.03375977 -65.96256836 132.03375977 -64.71289062 131.68164062 C-60.78570219 130.58457179 -56.89460209 129.52863717 -52.875 128.81640625 C-53.04 128.01203125 -53.205 127.20765625 -53.375 126.37890625 C-55.10793801 114.03172289 -52.24671144 103.92618194 -44.875 93.81640625 C-40.09774505 88.06315297 -33.63348297 85.89185533 -26.7890625 83.40625 C-23.70591541 82.16567231 -23.70591541 82.16567231 -23.21875 79.65820312 C-22.56977678 74.29311199 -22.41301925 68.92192149 -22.30517578 63.52416992 C-22.26842321 62.09521056 -22.2137548 60.66659864 -22.14111328 59.23901367 C-21.43008797 50.87514515 -21.43008797 50.87514515 -24.79980469 43.65454102 C-27.09710024 42.16897841 -29.40926329 40.99302413 -31.875 39.81640625 C-34.03125 37.5859375 -34.03125 37.5859375 -35.375 35.62890625 C-36.07109375 34.64857422 -36.07109375 34.64857422 -36.78125 33.6484375 C-40.41403605 27.56352086 -39.87069266 18.09519361 -38.296875 11.33203125 C-35.38958173 4.72454655 -29.25975707 -0.45520716 -22.9375 -3.68359375 C-14.50506377 -5.06031803 -7.31810789 -4.61955561 0 0 Z " fill="#04485B" transform="translate(254.875,33.18359375)"/>
<path d="M0 0 C5.79064427 4.40538239 9.39963194 10.35602897 10.5703125 17.5546875 C10.92535897 25.92194928 8.65182839 33.37654004 3.0625 39.69140625 C-1.29608504 43.69940945 -7.86698847 46.81640625 -13.875 46.81640625 C-13.89980683 50.99731038 -13.91791049 55.17817497 -13.92993164 59.35913086 C-13.93494565 60.78003689 -13.94175852 62.20093781 -13.95043945 63.62182617 C-13.96263388 65.66977201 -13.96825772 67.71764935 -13.97265625 69.765625 C-13.97789307 70.99627686 -13.98312988 72.22692871 -13.98852539 73.49487305 C-13.88745275 76.45206291 -13.75542488 78.99406251 -12.875 81.81640625 C-11.39 82.80640625 -11.39 82.80640625 -9.875 83.81640625 C-15.48719403 85.68713759 -18.80286433 86.22792804 -24.1875 83.75390625 C-25.0228125 83.28984375 -25.0228125 83.28984375 -25.875 82.81640625 C-24.885 82.32140625 -24.885 82.32140625 -23.875 81.81640625 C-22.20977145 75.9202486 -22.42681076 69.61221014 -22.30517578 63.52416992 C-22.26842321 62.09521056 -22.2137548 60.66659864 -22.14111328 59.23901367 C-21.43008797 50.87514515 -21.43008797 50.87514515 -24.79980469 43.65454102 C-27.09710024 42.16897841 -29.40926329 40.99302413 -31.875 39.81640625 C-34.03125 37.5859375 -34.03125 37.5859375 -35.375 35.62890625 C-35.8390625 34.97535156 -36.303125 34.32179687 -36.78125 33.6484375 C-40.41403605 27.56352086 -39.87069266 18.09519361 -38.296875 11.33203125 C-35.38958173 4.72454655 -29.25975707 -0.45520716 -22.9375 -3.68359375 C-14.50506377 -5.06031803 -7.31810789 -4.61955561 0 0 Z " fill="#E1C09E" transform="translate(254.875,33.18359375)"/>
<path d="M0 0 C0.56960404 8.78578502 -1.18489332 16.99722154 -3.02734375 25.52734375 C-3.33965951 27.00784663 -3.6511327 28.48852747 -3.96180725 29.96937561 C-4.77606655 33.83834639 -5.60261243 37.70459257 -6.43157959 41.57043457 C-7.10771194 44.73387585 -7.77494048 47.89916414 -8.44174862 51.06458187 C-9.23816478 54.84446123 -10.03841251 58.62352488 -10.83984375 62.40234375 C-10.99219923 63.12108107 -11.14455471 63.83981838 -11.30152702 64.58033562 C-11.73274313 66.60990919 -12.16653845 68.63891187 -12.60131836 70.66772461 C-12.97105019 72.39786049 -12.97105019 72.39786049 -13.34825134 74.16294861 C-14 77 -14 77 -15 80 C-14.278125 80.226875 -13.55625 80.45375 -12.8125 80.6875 C-7.04965396 83.37682815 -3.49173317 88.28875022 -1 94 C0.8696555 101.07798153 -0.36628528 107.90761143 -3.75 114.3125 C-8.08527362 119.49074349 -12.66221338 123.43477326 -19.578125 124.3359375 C-26.99030527 124.44430271 -33.21463877 123.50105298 -38.8203125 118.31640625 C-43.50334027 113.05648375 -45.86464826 108.1613374 -46 101 C-45.47145979 93.60043706 -43.17637411 88.32427052 -38 83 C-33.44603291 79.39477605 -28.89194453 77 -23 77 C-21.34517794 69.56608902 -19.69122331 62.13198541 -18.0378418 54.69775391 C-17.47651316 52.17427307 -16.91499362 49.65083468 -16.35327148 47.12744141 C-15.02255533 41.14927303 -13.69426347 35.17059734 -12.37255859 29.19042969 C-11.5754204 25.5839308 -10.77001471 21.97983664 -9.94384766 18.37988281 C-9.53271729 16.55602051 -9.53271729 16.55602051 -9.11328125 14.6953125 C-8.89067627 13.72867676 -8.66807129 12.76204102 -8.4387207 11.76611328 C-7.81060339 7.80586333 -7.16658089 3.66683823 -9 0 C-5.5657338 -0.85856655 -3.38317487 -0.97591583 0 0 Z " fill="#E7EDF7" transform="translate(230,184)"/>
<path d="M0 0 C0.95777344 0.4846875 1.91554688 0.969375 2.90234375 1.46875 C12.85616045 6.48603895 22.89407232 11.29724158 33 16 C33.54269531 15.57847656 34.08539063 15.15695313 34.64453125 14.72265625 C35.35996094 14.17480469 36.07539063 13.62695312 36.8125 13.0625 C37.52019531 12.51722656 38.22789062 11.97195312 38.95703125 11.41015625 C44.22330064 7.77512136 50.8794087 8.35610801 57 9 C63.08011504 11.29672057 67.17583827 15.54369356 70.1875 21.25 C71.9635948 27.26139778 72.9770486 31.89933665 70 37.6875 C66.66160593 42.97714379 62.73289901 46.72077068 57.0625 49.375 C49.35887536 50.94716829 43.70543955 50.11557571 37 46 C32.480555 41.77530142 30.18323454 37.01237061 29 31 C28.95425716 28.66711508 28.94614639 26.33271178 29 24 C28.00742187 23.50371094 27.01484375 23.00742188 25.9921875 22.49609375 C25.34161377 22.17060547 24.69104004 21.84511719 24.02075195 21.50976562 C22.57983192 20.78971547 21.13825244 20.07098357 19.69604492 19.35351562 C16.11304637 17.56890143 12.5411627 15.76912339 8.99609375 13.91015625 C8.37428223 13.58797119 7.7524707 13.26578613 7.11181641 12.93383789 C5.4005867 12.04571664 3.69428963 11.14811017 1.98828125 10.25 C-1.22891974 8.67841713 -1.22891974 8.67841713 -6 9 C-4.02 6.03 -2.04 3.06 0 0 Z " fill="#BEA088" transform="translate(269,169)"/>
<path d="M0 0 C4.25221576 1.97053901 7.09893961 4.24682366 9.64453125 8.27734375 C9.64453125 8.93734375 9.64453125 9.59734375 9.64453125 10.27734375 C12.52007848 9.48762323 15.39496869 8.69563388 18.26953125 7.90234375 C19.07777344 7.680625 19.88601562 7.45890625 20.71875 7.23046875 C25.07202197 6.02712528 29.37442633 4.7559885 33.64453125 3.27734375 C34.90118103 6.18334636 35.64453125 8.07338959 35.64453125 11.27734375 C34.6229895 11.51686768 34.6229895 11.51686768 33.58081055 11.76123047 C30.48509295 12.51383604 27.41043855 13.33192348 24.33203125 14.15234375 C23.26017578 14.40242187 22.18832031 14.6525 21.08398438 14.91015625 C17.96729601 15.76993235 15.40378784 16.58508963 12.64453125 18.27734375 C10.82050217 21.52677964 10.28568493 24.64566614 9.64453125 28.27734375 C6.8097703 33.10693648 2.88507548 35.5551861 -2.35546875 37.27734375 C-8.32173363 38.19996203 -13.04526798 37.23880187 -18.35546875 34.27734375 C-23.07852091 30.41302835 -25.77197443 26.22660407 -26.67578125 20.109375 C-26.97174641 14.37751648 -25.65034897 9.97974562 -22.35546875 5.27734375 C-15.90334607 -0.8521728 -8.64427589 -2.65205811 0 0 Z " fill="#C4A287" transform="translate(169.35546875,157.72265625)"/>
<path d="M0 0 C0.95777344 0.4846875 1.91554688 0.969375 2.90234375 1.46875 C12.85616045 6.48603895 22.89407232 11.29724158 33 16 C33.54269531 15.57847656 34.08539063 15.15695313 34.64453125 14.72265625 C35.35996094 14.17480469 36.07539063 13.62695312 36.8125 13.0625 C37.52019531 12.51722656 38.22789062 11.97195312 38.95703125 11.41015625 C44.22330064 7.77512136 50.8794087 8.35610801 57 9 C62.02946573 10.89984521 66.3693354 14.28672593 69 19 C69.30889196 21.75943485 69.18930114 24.20780823 69 27 C68.46375 27.2475 67.9275 27.495 67.375 27.75 C64.8738075 28.95087641 64.8738075 28.95087641 62.625 31.0625 C57.66630306 34.53617051 50.81582528 33.84066232 45 34 C44.67 33.01 44.34 32.02 44 31 C41.52711406 28.86820178 38.95417295 27.3715803 36 26 C36.66 26 37.32 26 38 26 C34.71153965 22.19771772 32.22793426 20.49264475 27.36328125 18.87109375 C22.38114884 17.03470445 17.72091639 14.41507034 13 12 C11.16767178 11.08132585 9.33441431 10.16450153 7.5 9.25 C4.66666667 7.83333333 1.83333333 6.41666667 -1 5 C-0.67 3.35 -0.34 1.7 0 0 Z M39 29 C41 30 41 30 41 30 Z " fill="#FBE1B9" transform="translate(269,169)"/>
<path d="M0 0 C0.91582362 2.74747086 1.04221411 5.19721706 1 8.0625 C0.79247553 11.90447286 0.79247553 11.90447286 2 15 C4.31 15.33 6.62 15.66 9 16 C9 16.66 9 17.32 9 18 C10.010625 17.835 11.02125 17.67 12.0625 17.5 C16.30585943 16.90790334 20.35308552 17.16456086 24.625 17.375 C29.69608324 17.49577148 29.69608324 17.49577148 34.265625 15.65625 C37.42749073 12.15670929 38.76766925 8.76278029 39 4 C41.72581568 6.72581568 41.93870301 9.28812691 42 13 C41.22525405 20.78435221 39.01449757 26.47123609 33.0625 31.75 C26.94017819 36.24803235 21.4285686 36.80501635 14 36 C7.2630424 34.2448176 2.84430567 30.74755209 -1 25 C-4.67778197 18.41870595 -4.15606369 12.32641028 -2.66796875 5.19921875 C-2 3 -2 3 0 0 Z " fill="#BEA390" transform="translate(188,272)"/>
<path d="M0 0 C1.29384007 2.58768013 0.84257102 3.96847506 0.4375 6.8125 C-0.02878696 10.93825424 0.2067364 13.2142213 2 17 C2.46137659 19.66294533 2.72628599 22.30847888 3 25 C3.66 25 4.32 25 5 25 C5.20625 25.78375 5.4125 26.5675 5.625 27.375 C6.79789238 30.27353412 6.79789238 30.27353412 9.9375 31.3125 C12.96473815 32.10951917 12.96473815 32.10951917 16 32 C16 32.66 16 33.32 16 34 C18.34533951 34.76956136 18.34533951 34.76956136 21 35 C22.60411246 33.64594139 22.60411246 33.64594139 24 32 C27.01480825 30.86944691 27.83170302 30.94390101 31 32 C31.66 31.01 32.32 30.02 33 29 C33.99 28.67 34.98 28.34 36 28 C37.42446157 25.3647461 38.16845087 23.80595026 37.546875 20.83203125 C37.36640625 20.22746094 37.1859375 19.62289062 37 19 C35.94039062 19.144375 34.88078125 19.28875 33.7890625 19.4375 C32.40105101 19.62506912 31.01302966 19.81256534 29.625 20 C28.92632812 20.09539063 28.22765625 20.19078125 27.5078125 20.2890625 C22.2265625 21 22.2265625 21 20 21 C20.70068359 19.05175781 20.70068359 19.05175781 22 17 C24.15478516 16.36230469 24.15478516 16.36230469 26.7890625 16.171875 C27.73007813 16.09453125 28.67109375 16.0171875 29.640625 15.9375 C30.62546875 15.875625 31.6103125 15.81375 32.625 15.75 C33.61757812 15.67265625 34.61015625 15.5953125 35.6328125 15.515625 C38.08729795 15.32681843 40.54354818 15.16121791 43 15 C43.33 11.7 43.66 8.4 44 5 C46.52416204 7.52416204 46.32525352 8.49784796 46.375 12 C46.20412168 19.67947259 44.06826247 26.07822509 38.9375 31.875 C34.57891496 35.8830032 28.00801153 39 22 39 C21.97519317 43.18090413 21.95708951 47.36176872 21.94506836 51.54272461 C21.94005435 52.96363064 21.93324148 54.38453156 21.92456055 55.80541992 C21.91236612 57.85336576 21.90674228 59.9012431 21.90234375 61.94921875 C21.89710693 63.17987061 21.89187012 64.41052246 21.88647461 65.6784668 C21.98754725 68.63565666 22.11957512 71.17765626 23 74 C24.485 74.99 24.485 74.99 26 76 C20.38780597 77.87073134 17.07213567 78.41152179 11.6875 75.9375 C10.8521875 75.4734375 10.8521875 75.4734375 10 75 C10.99 74.505 10.99 74.505 12 74 C13.66522855 68.10384235 13.44818924 61.79580389 13.56982422 55.70776367 C13.60657679 54.27880431 13.6612452 52.85019239 13.73388672 51.42260742 C14.44491203 43.0587389 14.44491203 43.0587389 11.07519531 35.83813477 C8.77789976 34.35257216 6.46573671 33.17661788 4 32 C1.84375 29.76953125 1.84375 29.76953125 0.5 27.8125 C0.0359375 27.15894531 -0.428125 26.50539063 -0.90625 25.83203125 C-3.28107164 21.854205 -3.19615029 18.22433779 -3.25 13.6875 C-3.27578125 12.39199219 -3.3015625 11.09648438 -3.328125 9.76171875 C-2.9829174 5.80416025 -2.00042564 3.39545931 0 0 Z " fill="#A7AEBC" transform="translate(219,41)"/>
<path d="M0 0 C2.04040776 2.04040776 3 3.08325244 3 6 C4.98 6.66 6.96 7.32 9 8 C9 9.65 9 11.3 9 13 C9.66 13 10.32 13 11 13 C10.76237326 17.99016146 9.32909257 20.42526914 5.84521484 23.76074219 C2.52649302 25.98961649 -0.76655464 25.59719432 -4.625 25.3125 C-9.91514683 24.89967911 -9.91514683 24.89967911 -15.11865234 25.55541992 C-17 26 -17 26 -19 25 C-19 24.34 -19 23.68 -19 23 C-20.11375 22.896875 -21.2275 22.79375 -22.375 22.6875 C-24.169375 22.3471875 -24.169375 22.3471875 -26 22 C-28.09675861 18.85486208 -28.59578704 16.83066948 -28.51953125 13.06640625 C-27.52753316 9.1207898 -24.29503012 7.10292573 -21 5 C-19.67051448 4.3256926 -18.33787589 3.65750311 -17 3 C-16.67 2.67 -16.34 2.34 -16 2 C-5.26297853 -0.77019198 -5.26297853 -0.77019198 0 0 Z " fill="#FCE5BD" transform="translate(216,265)"/>
<path d="M0 0 C0.33 -0.33 0.66 -0.66 1 -1 C2.51928038 -1.07179964 4.04167482 -1.08392007 5.5625 -1.0625 C6.38878906 -1.05347656 7.21507812 -1.04445313 8.06640625 -1.03515625 C8.70449219 -1.02355469 9.34257812 -1.01195313 10 -1 C10 -0.34 10 0.32 10 1 C10.94875 1.226875 11.8975 1.45375 12.875 1.6875 C16 3 16 3 17.375 5.625 C17.58125 6.40875 17.7875 7.1925 18 8 C11.81289716 14.90099932 2.99674128 17.16055165 -6 18 C-12.02080983 18.07706441 -18.01042585 17.56364473 -24 17 C-24 16.34 -24 15.68 -24 15 C-24.66 15 -25.32 15 -26 15 C-25.58596686 9.72107745 -24.93836608 6.64298863 -21 3 C-13.86151323 -1.22510049 -8.07315111 -1.66211935 0 0 Z " fill="#053D4F" transform="translate(238,118)"/>
<path d="M0 0 C2.57197783 1.80038448 4.12624397 2.92167876 5.5 5.75 C5.1875 9 5.1875 9 4.5 11.75 C6.975 12.245 6.975 12.245 9.5 12.75 C7.14046906 15.10953094 5.72104383 15.24141413 2.5 15.75 C2.5 16.41 2.5 17.07 2.5 17.75 C4.15 17.75 5.8 17.75 7.5 17.75 C6.09746074 20.55507852 4.39433474 20.76169058 1.5 21.75 C0.84 21.75 0.18 21.75 -0.5 21.75 C-1.22832031 21.92144531 -1.95664063 22.09289062 -2.70703125 22.26953125 C-5.98229855 22.83296884 -8.8760943 22.69048082 -12.1875 22.4375 C-13.32574219 22.35886719 -14.46398437 22.28023437 -15.63671875 22.19921875 C-18.5 21.75 -18.5 21.75 -20.5 19.75 C-22.14991582 19.04289322 -23.81562256 18.37056011 -25.5 17.75 C-25.005 13.295 -25.005 13.295 -24.5 8.75 C-23.84 8.75 -23.18 8.75 -22.5 8.75 C-22.479375 7.8425 -22.45875 6.935 -22.4375 6 C-21.5 2.75 -21.5 2.75 -18.625 0.375 C-12.70550475 -2.54202962 -6.08607306 -2.17359752 0 0 Z " fill="#FCE7BF" transform="translate(170.5,158.25)"/>
<path d="M0 0 C1.29384007 2.58768013 0.84257102 3.96847506 0.4375 6.8125 C-0.02878696 10.93825424 0.2067364 13.2142213 2 17 C2.46137659 19.66294533 2.72628599 22.30847888 3 25 C3.66 25 4.32 25 5 25 C5.20625 25.78375 5.4125 26.5675 5.625 27.375 C6.79789238 30.27353412 6.79789238 30.27353412 9.9375 31.3125 C12.96473815 32.10951917 12.96473815 32.10951917 16 32 C16 32.66 16 33.32 16 34 C18.34533951 34.76956136 18.34533951 34.76956136 21 35 C22.60411246 33.64594139 22.60411246 33.64594139 24 32 C27.01480825 30.86944691 27.83170302 30.94390101 31 32 C31.66 31.01 32.32 30.02 33 29 C33.99 28.67 34.98 28.34 36 28 C37.42446157 25.3647461 38.16845087 23.80595026 37.546875 20.83203125 C37.36640625 20.22746094 37.1859375 19.62289062 37 19 C35.94039062 19.144375 34.88078125 19.28875 33.7890625 19.4375 C32.40105101 19.62506912 31.01302966 19.81256534 29.625 20 C28.92632812 20.09539063 28.22765625 20.19078125 27.5078125 20.2890625 C22.2265625 21 22.2265625 21 20 21 C20.68701172 19.05175781 20.68701172 19.05175781 22 17 C24.24658203 16.36230469 24.24658203 16.36230469 27.0078125 16.171875 C27.99394531 16.09453125 28.98007813 16.0171875 29.99609375 15.9375 C31.54490234 15.8446875 31.54490234 15.8446875 33.125 15.75 C34.16527344 15.67265625 35.20554688 15.5953125 36.27734375 15.515625 C38.85084633 15.32674408 41.42430816 15.1556424 44 15 C43.02087008 23.2051087 40.50820046 28.67510871 34 34 C29.75562549 36.14806759 25.80898462 37.45084231 21 37 C21 37.66 21 38.32 21 39 C19.515 39.495 19.515 39.495 18 40 C17.60425781 39.54109375 17.20851562 39.0821875 16.80078125 38.609375 C14.67773077 36.71198499 12.88489505 36.12841436 10.1875 35.25 C4.10967239 32.93421459 0.76406362 29.50387895 -2.13671875 23.7421875 C-3.2315388 20.26452382 -3.3014939 17.2055194 -3.3125 13.5625 C-3.32925781 12.28503906 -3.34601563 11.00757813 -3.36328125 9.69140625 C-2.97967893 5.79351169 -1.96516708 3.35478391 0 0 Z " fill="#B8A38F" transform="translate(219,41)"/>
<path d="M0 0 C0.33 0 0.66 0 1 0 C1.05422947 1.4370809 1.09289723 2.87475462 1.125 4.3125 C1.14820313 5.11300781 1.17140625 5.91351563 1.1953125 6.73828125 C0.92571334 9.86023949 -0.46757835 11.49925561 -2.70703125 13.60546875 C-10.17459364 19.2165314 -16.76539442 18.66990748 -25.7265625 17.70703125 C-29.69096657 17.05490615 -31.44803409 16.66904959 -34.0625 13.5 C-35 11 -35 11 -35 9 C-36.32 8.67 -37.64 8.34 -39 8 C-38.67 6.68 -38.34 5.36 -38 4 C-37.67 4.99 -37.34 5.98 -37 7 C-34.69 7.33 -32.38 7.66 -30 8 C-30 8.66 -30 9.32 -30 10 C-28.4840625 9.7525 -28.4840625 9.7525 -26.9375 9.5 C-22.69414057 8.90790334 -18.64691448 9.16456086 -14.375 9.375 C-9.25449168 9.53250923 -9.25449168 9.53250923 -4.734375 7.515625 C-2.71923496 5.14832456 -1.38278147 2.76556294 0 0 Z " fill="#F0C7A1" transform="translate(227,280)"/>
<path d="M0 0 C0.33 0 0.66 0 1 0 C1.25026069 7.25755996 1.25026069 7.25755996 0.0625 10.78125 C-1.14763635 14.4472513 -1.67401411 18.06010298 -2.125 21.875 C-2.21136719 22.56335938 -2.29773438 23.25171875 -2.38671875 23.9609375 C-2.59659566 25.63995275 -2.79907087 27.31989048 -3 29 C-1.68 28.01 -0.36 27.02 1 26 C0.885354 26.565979 0.77070801 27.13195801 0.65258789 27.71508789 C-0.34290805 32.65801891 -1.31154764 37.60524444 -2.25390625 42.55859375 C-2.46853516 43.68587891 -2.68316406 44.81316406 -2.90429688 45.97460938 C-3.34825132 48.31031037 -3.79093118 50.64625394 -4.23242188 52.98242188 C-4.55243164 54.65981445 -4.55243164 54.65981445 -4.87890625 56.37109375 C-5.0704126 57.38099365 -5.26191895 58.39089355 -5.45922852 59.43139648 C-6 62 -6 62 -7 65 C-8.65 65 -10.3 65 -12 65 C-12.39405844 56.65981311 -11.26733963 49.21950691 -9.375 41.11328125 C-9.10864746 39.93025925 -8.84229492 38.74723724 -8.56787109 37.52836609 C-7.72291451 33.78714696 -6.86174997 30.04988263 -6 26.3125 C-5.42079573 23.7613125 -4.84266004 21.20988215 -4.265625 18.65820312 C-2.85609229 12.43594092 -1.43326943 6.21683496 0 0 Z " fill="#D4DBE9" transform="translate(221,198)"/>
<path d="M0 0 C0.33 0.99 0.66 1.98 1 3 C2.87735884 3.63470107 2.87735884 3.63470107 5 4 C8.24980326 5.53340942 11.44422289 7.13979599 14.63330078 8.79418945 C17.9453097 10.50270594 21.16415501 12.06327174 24.6484375 13.40625 C27.85814235 14.68080592 30.35814748 15.76992485 33 18 C34.56623404 22.29432896 34.7137831 26.46913247 35 31 C35.56150947 33.7676436 35.56150947 33.7676436 36.375 36.25 C36.58898437 36.95640625 36.80296875 37.6628125 37.0234375 38.390625 C37.8962908 40.21370075 37.8962908 40.21370075 40.1015625 40.734375 C40.72804688 40.82203125 41.35453125 40.9096875 42 41 C42 41.66 42 42.32 42 43 C45.65947553 44.14986014 49.11946653 44.13314948 52.9375 44.125 C54.14277344 44.12757813 55.34804688 44.13015625 56.58984375 44.1328125 C59.53222592 44.01821801 62.14489223 43.68262539 65 43 C62.4372874 46.13220429 59.89099023 47.04560617 56 48 C49.45013299 48.64424921 44.63409713 47.45802137 39 44 C34.480555 39.77530142 32.18323454 35.01237061 31 29 C30.95425716 26.66711508 30.94614639 24.33271178 31 22 C30.00742187 21.50371094 29.01484375 21.00742188 27.9921875 20.49609375 C27.34161377 20.17060547 26.69104004 19.84511719 26.02075195 19.50976562 C24.57983192 18.78971547 23.13825244 18.07098357 21.69604492 17.35351562 C18.11304637 15.56890143 14.5411627 13.76912339 10.99609375 11.91015625 C10.37428223 11.58797119 9.7524707 11.26578613 9.11181641 10.93383789 C7.4005867 10.04571664 5.69428963 9.14811017 3.98828125 8.25 C1.02648172 7.01107732 -0.83559941 6.71819809 -4 7 C-2.68 4.69 -1.36 2.38 0 0 Z " fill="#949EB0" transform="translate(267,171)"/>
<path d="M0 0 C2.49361571 1.20381448 4.68143083 2.45428722 7 4 C7 4.66 7 5.32 7 6 C8.75238728 7.35452384 10.59782517 8.49941712 12.46875 9.68359375 C12.9740625 10.11800781 13.479375 10.55242187 14 11 C14 11.99 14 12.98 14 14 C24.00499443 13.29359549 30.23354231 11.32822479 38 5 C38.33 5 38.66 5 39 5 C39.36992481 12.52180451 39.36992481 12.52180451 37.71875 14.65625 C32.57850071 18.67499036 26.36358295 19.74649723 20 19 C17.27827039 18.45472198 14.67338558 17.76382445 12 17 C12 16.34 12 15.68 12 15 C9.36 14.34 6.72 13.68 4 13 C4 10.69 4 8.38 4 6 C3.34 6 2.68 6 2 6 C1.67 6.99 1.34 7.98 1 9 C0 8 0 8 -0.09765625 6.15234375 C-0.06510417 4.1015625 -0.03255208 2.05078125 0 0 Z " fill="#D6B092" transform="translate(300,189)"/>
<path d="M0 0 C1.9487858 1.460613 3.48291756 2.76483744 4.94921875 4.7109375 C5.38671875 8.5859375 5.38671875 8.5859375 4.94921875 11.7109375 C4.28921875 11.7109375 3.62921875 11.7109375 2.94921875 11.7109375 C2.59859375 10.7415625 2.24796875 9.7721875 1.88671875 8.7734375 C0.92765625 7.2575 0.92765625 7.2575 -0.05078125 5.7109375 C-3.57591653 4.96917743 -3.57591653 4.96917743 -7.05078125 4.7109375 C-7.71078125 3.7209375 -8.37078125 2.7309375 -9.05078125 1.7109375 C-11.93674071 1.12612629 -11.93674071 1.12612629 -15.17578125 1.0234375 C-16.27148438 0.95769531 -17.3671875 0.89195313 -18.49609375 0.82421875 C-19.33914062 0.78683594 -20.1821875 0.74945313 -21.05078125 0.7109375 C-21.31117188 1.33871094 -21.5715625 1.96648438 -21.83984375 2.61328125 C-23.71435503 5.86041853 -26.64962594 6.3622035 -30.05078125 7.7109375 C-32.94841484 9.59048361 -34.09441092 10.776382 -36.05078125 13.7109375 C-36.1289311 9.33454568 -36.03269898 6.89501477 -33.19140625 3.46875 C-23.31397267 -5.58003982 -11.53574687 -7.25104089 0 0 Z " fill="#D0D9E4" transform="translate(255.05078125,33.2890625)"/>
<path d="M0 0 C0.33 0 0.66 0 1 0 C0.39728392 9.12549817 -1.52076053 17.90453834 -3.43847656 26.82495117 C-4.00363424 29.4544087 -4.56105239 32.08541772 -5.1171875 34.71679688 C-5.47351526 36.3933234 -5.83027059 38.06975912 -6.1875 39.74609375 C-6.35419189 40.53044296 -6.52088379 41.31479218 -6.69262695 42.12290955 C-7.34286241 45.14183303 -8.02255883 48.06767649 -9 51 C-8.278125 51.226875 -7.55625 51.45375 -6.8125 51.6875 C-2.35206364 53.76903697 0.30210504 56.95315756 3 61 C3 62.32 3 63.64 3 65 C2.34 65 1.68 65 1 65 C1 63.35 1 61.7 1 60 C0.071875 59.773125 -0.85625 59.54625 -1.8125 59.3125 C-5 58 -5 58 -6.5 55.375 C-6.995 54.59125 -7.49 53.8075 -8 53 C-13.05789706 52.1364566 -19.12063535 53.42953324 -24 55 C-25.6814475 56.44659681 -25.6814475 56.44659681 -27 58 C-29.87741196 59.63053344 -32.92073882 60.80250954 -36 62 C-34.95109935 56.49327161 -32.50547572 54.31368734 -28.09765625 51.2578125 C-24.42751142 49.05709251 -21.26582367 48 -17 48 C-16.34 46.68 -15.68 45.36 -15 44 C-15 45.98 -15 47.96 -15 50 C-13.35 50 -11.7 50 -10 50 C-9.91363281 49.24460937 -9.82726562 48.48921875 -9.73828125 47.7109375 C-8.39224473 37.16492658 -6.02280447 26.93811499 -3.60058594 16.59667969 C-2.32484444 11.08091278 -1.16293741 5.54049853 0 0 Z " fill="#AFB6BF" transform="translate(224,213)"/>
<path d="M0 0 C0.95777344 0.4846875 1.91554688 0.969375 2.90234375 1.46875 C12.85616045 6.48603895 22.89407232 11.29724158 33 16 C33.54269531 15.57847656 34.08539063 15.15695313 34.64453125 14.72265625 C35.35996094 14.17480469 36.07539063 13.62695312 36.8125 13.0625 C37.52019531 12.51722656 38.22789062 11.97195312 38.95703125 11.41015625 C44.22330064 7.77512136 50.8794087 8.35610801 57 9 C62.13267684 10.93883247 66.1183459 14.31731208 69 19 C69 20.32 69 21.64 69 23 C65.58841744 21.86280581 64.88145399 20.95657056 63 18 C63 17.34 63 16.68 63 16 C56.86271461 13.86529204 50.16055256 12.44744087 43.875 14.79296875 C40.72995414 16.50308744 38.99639081 18.00541379 37 21 C36.34 20.34 35.68 19.68 35 19 C33.53781858 18.34689349 32.05012613 17.75007227 30.55078125 17.1875 C24.97809758 15.02374003 19.5854395 12.56489566 14.1875 10 C13.27291016 9.57460937 12.35832031 9.14921875 11.41601562 8.7109375 C6.83576732 6.53906703 2.79419476 4.43625186 -1 1 C-0.67 0.67 -0.34 0.34 0 0 Z " fill="#D4D7CA" transform="translate(269,169)"/>
<path d="M0 0 C0.66 0.33 1.32 0.66 2 1 C0.25 6.75 0.25 6.75 -2 9 C-3.32 9 -4.64 9 -6 9 C-6 9.99 -6 10.98 -6 12 C-9.64548133 14.30576694 -12.75210978 14.23699872 -17 14.1875 C-18.8253125 14.17783203 -18.8253125 14.17783203 -20.6875 14.16796875 C-25.72990616 13.9122807 -25.72990616 13.9122807 -28 13 C-31 7.96428571 -31 7.96428571 -31 5 C-30.42894531 5.0721875 -29.85789063 5.144375 -29.26953125 5.21875 C-24.22455732 5.79623509 -19.20234 6.13525785 -14.125 6.25 C-13.05507812 6.27578125 -11.98515625 6.3015625 -10.8828125 6.328125 C-7.62743548 5.95759428 -6.47781638 5.03803079 -4 3 C-3.01 3 -2.02 3 -1 3 C-0.67 2.01 -0.34 1.02 0 0 Z " fill="#C2A288" transform="translate(225,291)"/>
<path d="M0 0 C1.875 0.6875 1.875 0.6875 4 2 C4.7211874 3.64380989 5.39401025 5.31032588 6 7 C8.87554723 6.21027948 11.75043744 5.41829013 14.625 4.625 C15.43324219 4.40328125 16.24148437 4.1815625 17.07421875 3.953125 C21.42749072 2.74978153 25.72989508 1.47864475 30 0 C30.33 2.31 30.66 4.62 31 7 C22.86216589 9.9813724 12.53631912 12.87508532 4.08203125 10.01171875 C3.39496094 9.67785156 2.70789063 9.34398437 2 9 C2.04125 8.071875 2.0825 7.14375 2.125 6.1875 C2.27136339 2.84190281 2.27136339 2.84190281 0 0 Z " fill="#B6BED2" transform="translate(173,161)"/>
<path d="M0 0 C0.99 0.495 0.99 0.495 2 1 C2.99 0.67 3.98 0.34 5 0 C5 0.66 5 1.32 5 2 C5.66 2 6.32 2 7 2 C7 2.66 7 3.32 7 4 C7.99 3.67 8.98 3.34 10 3 C12.625 3.3125 12.625 3.3125 15 4 C15.33 4.66 15.66 5.32 16 6 C16.66 5.67 17.32 5.34 18 5 C18 5.66 18 6.32 18 7 C18.804375 6.835 19.60875 6.67 20.4375 6.5 C24.65887352 5.90752652 28.74664545 5.91493291 33 6 C31.59746074 8.80507852 29.89433474 9.01169058 27 10 C26.34 10 25.68 10 25 10 C24.27167969 10.17144531 23.54335937 10.34289062 22.79296875 10.51953125 C19.51770145 11.08296884 16.6239057 10.94048082 13.3125 10.6875 C12.17425781 10.60886719 11.03601563 10.53023437 9.86328125 10.44921875 C7 10 7 10 5 8 C3.35008418 7.29289322 1.68437744 6.62056011 0 6 C0 4.02 0 2.04 0 0 Z " fill="#F8CFAD" transform="translate(145,170)"/>
<path d="M0 0 C0.33 0.66 0.66 1.32 1 2 C0.67 2.99 0.34 3.98 0 5 C-0.66 5 -1.32 5 -2 5 C-2.30950345 11.49957243 -1.88761459 17.06581955 1 23 C1.66 23.33 2.32 23.66 3 24 C3 24.66 3 25.32 3 26 C3.99 26.33 4.98 26.66 6 27 C6 27.66 6 28.32 6 29 C14.92623193 30.16741464 21.59095025 30.60196445 29 25 C27.25818898 29.16634194 25.28689712 30.40235965 21.28125 32.23828125 C16.00013402 34.00166758 11.48670747 33.4707907 6.25 31.8125 C0.19504666 28.4356991 -2.90396239 24.61906615 -5 18 C-5.97410259 11.40698857 -4.54485772 6.58065954 -1 1 C-0.67 0.67 -0.34 0.34 0 0 Z " fill="#8E8597" transform="translate(148,162)"/>
<path d="M0 0 C2.52416204 2.52416204 2.32525352 3.49784796 2.375 7 C2.20412168 14.67947259 0.06826247 21.07822509 -5.0625 26.875 C-9.42108504 30.8830032 -15.99198847 34 -22 34 C-21.99476318 34.69561035 -21.98952637 35.3912207 -21.98413086 36.10791016 C-21.96325663 39.28026413 -21.95030668 42.45260361 -21.9375 45.625 C-21.92912109 46.71941406 -21.92074219 47.81382813 -21.91210938 48.94140625 C-21.90888672 50.00488281 -21.90566406 51.06835938 -21.90234375 52.1640625 C-21.89710693 53.13811035 -21.89187012 54.1121582 -21.88647461 55.11572266 C-22.00585494 58.14875321 -22.44133276 61.01915268 -23 64 C-23.33 64 -23.66 64 -24 64 C-24.02469321 59.7641643 -24.04285671 55.52836658 -24.05493164 51.29248047 C-24.05996474 49.8510668 -24.06679173 48.40965824 -24.07543945 46.96826172 C-24.08754983 44.89809915 -24.09323847 42.82800399 -24.09765625 40.7578125 C-24.10289307 39.5114502 -24.10812988 38.26508789 -24.11352539 36.98095703 C-24 34 -24 34 -23 32 C-21.14453125 31.5078125 -21.14453125 31.5078125 -18.8125 31.125 C-11.58468261 29.63590925 -7.28723234 25.95448937 -3 20 C-1.19360901 15.51605073 -0.6473274 11.43611742 -0.375 6.625 C-0.30023438 5.37976562 -0.22546875 4.13453125 -0.1484375 2.8515625 C-0.09945313 1.91054688 -0.05046875 0.96953125 0 0 Z " fill="#8A92A9" transform="translate(263,46)"/>
<path d="M0 0 C2.75065779 1.9942269 4.02299557 3.77643533 5.5 6.8125 C2.45613276 6.89476668 0.42824652 6.78858217 -2.5 5.8125 C-2.94988281 5.12671875 -3.39976562 4.4409375 -3.86328125 3.734375 C-4.40339844 3.10015625 -4.94351563 2.4659375 -5.5 1.8125 C-8.02653421 1.54524904 -8.02653421 1.54524904 -10.6875 2.0625 C-11.58855469 2.19140625 -12.48960937 2.3203125 -13.41796875 2.453125 C-14.10503906 2.57171875 -14.79210937 2.6903125 -15.5 2.8125 C-14.84 3.1425 -14.18 3.4725 -13.5 3.8125 C-15.55233685 6.0602975 -16.50667261 6.8147242 -19.5 7.8125 C-20.8703055 9.78735205 -22.20672372 11.78636717 -23.5 13.8125 C-23.83 13.8125 -24.16 13.8125 -24.5 13.8125 C-24.5 12.1625 -24.5 10.5125 -24.5 8.8125 C-23.84 8.8125 -23.18 8.8125 -22.5 8.8125 C-22.479375 7.905 -22.45875 6.9975 -22.4375 6.0625 C-21.5 2.8125 -21.5 2.8125 -18.625 0.4375 C-12.70642881 -2.47907426 -6.11308729 -2.07408319 0 0 Z " fill="#D4D8D5" transform="translate(170.5,158.1875)"/>
<path d="M0 0 C2.72581568 2.72581568 2.93870301 5.28812691 3 9 C2.22525405 16.78435221 0.01449757 22.47123609 -5.9375 27.75 C-12.06207214 32.24968565 -17.57058509 32.73128335 -25 32 C-27.57816161 31.23232021 -29.61207399 30.27356054 -32 29 C-32 28.67 -32 28.34 -32 28 C-31.41508789 28.00523682 -30.83017578 28.01047363 -30.22753906 28.01586914 C-27.56837037 28.03670158 -24.90921889 28.04968007 -22.25 28.0625 C-21.32960937 28.07087891 -20.40921875 28.07925781 -19.4609375 28.08789062 C-18.57148438 28.09111328 -17.68203125 28.09433594 -16.765625 28.09765625 C-15.54020996 28.10551147 -15.54020996 28.10551147 -14.29003906 28.11352539 C-12.06031865 28.00299021 -10.13866245 27.62055567 -8 27 C-8 26.01 -8 25.02 -8 24 C-6.8553125 23.7834375 -6.8553125 23.7834375 -5.6875 23.5625 C-2.12587337 21.49178684 -1.61561299 19.65943906 -0.4921875 15.796875 C0.43011896 10.55583195 0.22113534 5.29905803 0 0 Z " fill="#918893" transform="translate(227,276)"/>
<path d="M0 0 C3.47633534 1.35260197 6.84428266 2.83932138 10.203125 4.4609375 C11.18410156 4.93273437 12.16507812 5.40453125 13.17578125 5.890625 C14.19027344 6.38046875 15.20476562 6.8703125 16.25 7.375 C18.25461027 8.34238612 20.2598112 9.30854929 22.265625 10.2734375 C23.23048828 10.7384668 24.19535156 11.20349609 25.18945312 11.68261719 C28.50148515 13.23506027 31.85851294 14.65795149 35.24902344 16.02978516 C37 17 37 17 39 20 C29.9602237 18.58753495 22.04381352 14.11495859 14 10 C12.16767178 9.08132585 10.33441431 8.16450153 8.5 7.25 C5.66666667 5.83333333 2.83333333 4.41666667 0 3 C0 2.01 0 1.02 0 0 Z " fill="#DFE3F1" transform="translate(268,171)"/>
<path d="M0 0 C0.66 0 1.32 0 2 0 C2.4803318 1.58298026 2.95921612 3.16639978 3.4375 4.75 C3.83775391 6.07257813 3.83775391 6.07257813 4.24609375 7.421875 C4.88468494 9.60565835 5.46775833 11.78835498 6 14 C7.32 14.33 8.64 14.66 10 15 C10 15.66 10 16.32 10 17 C13.65947553 18.14986014 17.11946653 18.13314948 20.9375 18.125 C22.14277344 18.12757813 23.34804688 18.13015625 24.58984375 18.1328125 C27.53222592 18.01821801 30.14489223 17.68262539 33 17 C30.4372874 20.13220429 27.89099023 21.04560617 24 22 C17.47518229 22.64178535 12.60033199 21.48417601 7 18 C4.91841785 16.11040844 3.61892418 14.3547988 2 12 C1.566875 11.38125 1.13375 10.7625 0.6875 10.125 C-0.40516514 6.74767137 -0.11785058 3.53551747 0 0 Z " fill="#958E94" transform="translate(299,197)"/>
<path d="M0 0 C2.31 0.66 4.62 1.32 7 2 C7 13.88 7 25.76 7 38 C8.65 38.33 10.3 38.66 12 39 C12.33 38.01 12.66 37.02 13 36 C13.4021875 36.928125 13.4021875 36.928125 13.8125 37.875 C14.95556848 40.2995233 14.95556848 40.2995233 18 42 C12.38780597 43.87073134 9.07213567 44.41152179 3.6875 41.9375 C3.130625 41.628125 2.57375 41.31875 2 41 C2.99 40.505 2.99 40.505 4 40 C5.70729422 34.06081023 5.29842025 27.67721659 5.35009766 21.54296875 C5.36674221 20.09391312 5.39414315 18.64494235 5.43212891 17.19628906 C5.48678415 15.09657703 5.50873758 12.99876383 5.5234375 10.8984375 C5.54325684 9.64724121 5.56307617 8.39604492 5.58349609 7.10693359 C5.32714347 3.7972432 5.32714347 3.7972432 2.46728516 2.13134766 C1.65308105 1.75800293 0.83887695 1.3846582 0 1 C0 0.67 0 0.34 0 0 Z " fill="#7A8CAB" transform="translate(227,75)"/>
<path d="M0 0 C1.29384007 2.58768013 0.84257102 3.96847506 0.4375 6.8125 C-0.03958966 10.99299814 0.35445383 13.12812667 2 17 C2.18122918 20.33979495 2.11679014 23.65850427 2 27 C2.99 27.33 3.98 27.66 5 28 C6.6875 31.0625 6.6875 31.0625 8 34 C4.63512219 32.59127675 2.94290543 31.00344528 0.8125 28.0625 C0.04873047 27.02802734 0.04873047 27.02802734 -0.73046875 25.97265625 C-3.3024411 21.97620691 -3.19487139 18.33208518 -3.25 13.6875 C-3.27578125 12.39199219 -3.3015625 11.09648438 -3.328125 9.76171875 C-2.9829174 5.80416025 -2.00042564 3.39545931 0 0 Z " fill="#ABA2AD" transform="translate(219,41)"/>
<path d="M0 0 C0.65633329 10.00908272 -1.77154068 19.31018135 -4 29 C-4.33 29 -4.66 29 -5 29 C-5.15364051 24.69806563 -5.12658329 20.9776847 -4 16.8125 C-3.16299385 13.62141407 -2.79675013 11.25199789 -3 8 C-3.99 7.67 -4.98 7.34 -6 7 C-6.33 9.31 -6.66 11.62 -7 14 C-7.33 14 -7.66 14 -8 14 C-7.98839844 13.15695313 -7.97679687 12.31390625 -7.96484375 11.4453125 C-7.95582031 10.34960938 -7.94679687 9.25390625 -7.9375 8.125 C-7.92589844 7.03445312 -7.91429687 5.94390625 -7.90234375 4.8203125 C-7.80255697 2.04822454 -7.80255697 2.04822454 -9 0 C-5.5657338 -0.85856655 -3.38317487 -0.97591583 0 0 Z " fill="#99ABC1" transform="translate(230,184)"/>
<path d="M0 0 C0.33 0 0.66 0 1 0 C0.67 2.64 0.34 5.28 0 8 C-0.66 8 -1.32 8 -2 8 C-2.33 8.66 -2.66 9.32 -3 10 C-9.28976167 14.86027038 -15.26657481 14.65143173 -23 14 C-26.08705487 13.49893745 -28.97589671 12.82009581 -32 12 C-32 11.34 -32 10.68 -32 10 C-30.865625 10.10699219 -29.73125 10.21398437 -28.5625 10.32421875 C-17.4596053 11.34525391 -17.4596053 11.34525391 -7 8 C-6.34 8 -5.68 8 -5 8 C-5 7.34 -5 6.68 -5 6 C-4.0409375 5.2884375 -4.0409375 5.2884375 -3.0625 4.5625 C-0.71627037 3.0908635 -0.71627037 3.0908635 0 0 Z " fill="#D5B093" transform="translate(227,284)"/>
<path d="M0 0 C0.556875 0.144375 1.11375 0.28875 1.6875 0.4375 C13.44318933 3.35266679 13.44318933 3.35266679 25 1 C25.33 1.99 25.66 2.98 26 4 C25.01 4 24.02 4 23 4 C23 4.66 23 5.32 23 6 C16.11422188 7.01593448 9.90188971 6.83854735 3 6 C3 5.34 3 4.68 3 4 C2.34 4 1.68 4 1 4 C0.67 2.68 0.34 1.36 0 0 Z " fill="#D3AD8F" transform="translate(147,177)"/>
<path d="M0 0 C8.19295599 0.76808962 14.91321677 6.94981085 20 13 C21.62140517 15.30630908 22.79019295 17.42916001 24 20 C23.67 20.66 23.34 21.32 23 22 C22.38125 21.814375 21.7625 21.62875 21.125 21.4375 C18.95839822 20.76313824 18.95839822 20.76313824 17 22 C16.85304688 21.12988281 16.85304688 21.12988281 16.703125 20.2421875 C15.70157897 15.00997291 14.67360421 11.03200462 11 7 C7.44179398 4.76649405 3.77659233 2.83620524 0 1 C0 0.67 0 0.34 0 0 Z " fill="#3E6D91" transform="translate(248,118)"/>
<path d="M0 0 C0.33 0.66 0.66 1.32 1 2 C1.66 2 2.32 2 3 2 C3.20625 2.78375 3.4125 3.5675 3.625 4.375 C4.79789238 7.27353412 4.79789238 7.27353412 7.9375 8.3125 C10.96473815 9.10951917 10.96473815 9.10951917 14 9 C14 9.66 14 10.32 14 11 C18.67201205 12.20568053 23.21496292 12.09382426 28 12 C24.78360346 13.74565111 22.67986596 14.204437 19 14 C19 14.66 19 15.32 19 16 C18.01 16.33 17.02 16.66 16 17 C15.5875 16.54367188 15.175 16.08734375 14.75 15.6171875 C12.89515682 13.90311367 11.30925379 13.1134306 9 12.125 C5.31173987 10.37544071 3.81464534 8.73010431 2 5 C1.34 4.67 0.68 4.34 0 4 C0 2.68 0 1.36 0 0 Z " fill="#B7A497" transform="translate(221,64)"/>
<path d="M0 0 C0.33 0.99 0.66 1.98 1 3 C0.31897217 3.15968262 -0.36205566 3.31936523 -1.0637207 3.48388672 C-4.1594383 4.23649229 -7.2340927 5.05457973 -10.3125 5.875 C-11.38435547 6.12507812 -12.45621094 6.37515625 -13.56054688 6.6328125 C-16.68070365 7.4935454 -19.24153537 8.29893745 -22 10 C-23.43678463 12.65195724 -24.05423352 14.89451566 -24.55932617 17.85986328 C-24.70474854 18.5661084 -24.8501709 19.27235352 -25 20 C-25.66 20.33 -26.32 20.66 -27 21 C-26.34 16.38 -25.68 11.76 -25 7 C-20.78612689 5.59537563 -17.35510382 4.60874817 -13.0625 3.9375 C-11.50982422 3.69193359 -11.50982422 3.69193359 -9.92578125 3.44140625 C-6.61927418 2.94256072 -3.31326981 2.45180952 0 2 C0 1.34 0 0.68 0 0 Z " fill="#8992AA" transform="translate(204,166)"/>
<path d="M0 0 C0.95777344 0.4846875 1.91554688 0.969375 2.90234375 1.46875 C12.85616045 6.48603895 22.89407232 11.29724158 33 16 C34.98 14.35 36.96 12.7 39 11 C39.66 11.33 40.32 11.66 41 12 C39.60773092 15.36465028 38.17380572 17.17496519 35 19 C32.80200195 18.59375 32.80200195 18.59375 30.42578125 17.5 C29.54744629 17.10683594 28.66911133 16.71367187 27.76416016 16.30859375 C26.8519873 15.87675781 25.93981445 15.44492188 25 15 C24.10974121 14.59910156 23.21948242 14.19820312 22.30224609 13.78515625 C19.58288483 12.55226098 16.88429892 11.28141633 14.1875 10 C13.27291016 9.57460937 12.35832031 9.14921875 11.41601562 8.7109375 C6.83576732 6.53906703 2.79419476 4.43625186 -1 1 C-0.67 0.67 -0.34 0.34 0 0 Z " fill="#7C86A9" transform="translate(269,169)"/>
<path d="M0 0 C0.66 0.33 1.32 0.66 2 1 C1.2884375 2.0828125 1.2884375 2.0828125 0.5625 3.1875 C-1.14553002 5.86425742 -1.14553002 5.86425742 -1.375 8.6875 C-1.58125 9.450625 -1.7875 10.21375 -2 11 C-3.66072849 11.68132451 -5.327767 12.34742127 -7 13 C-8.30514736 15.21776622 -8.30514736 15.21776622 -9 18 C-9.350625 19.093125 -9.70125 20.18625 -10.0625 21.3125 C-11.06120469 25.24073847 -11.57621731 28.97406449 -12 33 C-12.33 33 -12.66 33 -13 33 C-13.5397251 21.84568132 -10.52050046 13.08725003 -4 4 C-2.69603768 2.63792885 -1.36980206 1.29583867 0 0 Z " fill="#346388" transform="translate(214,123)"/>
<path d="M0 0 C0.66 0.33 1.32 0.66 2 1 C1.8125 2.8125 1.8125 2.8125 1 5 C-2.97566615 8.10598918 -8.05679216 10.04604761 -13 11 C-16.5625 10.1875 -16.5625 10.1875 -19 9 C-16.60970114 6.60970114 -16.11009261 6.8176326 -12.875 6.75 C-7.33212698 6.29183708 -4.05401412 3.61215972 0 0 Z " fill="#E6BD9C" transform="translate(336,195)"/>
<path d="M0 0 C0.66 0.33 1.32 0.66 2 1 C0.515 2.485 0.515 2.485 -1 4 C0.98 3.67 2.96 3.34 5 3 C4.4375 4.8125 4.4375 4.8125 3 7 C0.69631264 8.06652192 -1.64018187 9.06421005 -4 10 C-6.89763359 11.87954611 -8.04362967 13.0654445 -10 16 C-10.08099183 11.46445779 -10.01701439 9.13598588 -6.9296875 5.6875 C-4.673888 3.7074879 -2.38985324 1.81532286 0 0 Z " fill="#DDD5CE" transform="translate(229,31)"/>
<path d="M0 0 C-0.99 0.495 -0.99 0.495 -2 1 C-2.72693904 2.97888961 -3.39816251 4.97954558 -4 7 C-4.66 6.67 -5.32 6.34 -6 6 C-6 5.01 -6 4.02 -6 3 C-7.05960938 3.144375 -8.11921875 3.28875 -9.2109375 3.4375 C-10.59894899 3.62506912 -11.98697034 3.81256534 -13.375 4 C-14.42300781 4.14308594 -14.42300781 4.14308594 -15.4921875 4.2890625 C-20.7734375 5 -20.7734375 5 -23 5 C-22.5 3.0625 -22.5 3.0625 -21 1 C-14.13975475 -0.55326308 -7.00088876 -0.09604878 0 0 Z " fill="#D1AE8F" transform="translate(262,57)"/>
<path d="M0 0 C2.19061597 0.11889368 4.37815054 0.29615827 6.5625 0.5 C11.97896735 0.93485866 16.66150057 0.87357263 22 0 C23.66630509 -0.03471469 25.33414654 -0.05205792 27 0 C25.59746074 2.80507852 23.89433474 3.01169058 21 4 C20.34 4 19.68 4 19 4 C18.27167969 4.17015625 17.54335937 4.3403125 16.79296875 4.515625 C13.52568686 5.0822585 10.61897895 4.97621293 7.3125 4.75 C6.17425781 4.68296875 5.03601563 4.6159375 3.86328125 4.546875 C2.91839844 4.36640625 1.97351563 4.1859375 1 4 C0.34 3.01 -0.32 2.02 -1 1 C-0.67 0.67 -0.34 0.34 0 0 Z " fill="#E8C1A1" transform="translate(151,176)"/>
<path d="M0 0 C0.33 0.66 0.66 1.32 1 2 C0.67 2.99 0.34 3.98 0 5 C-0.66 5 -1.32 5 -2 5 C-2.22117584 10.52939603 -1.87082322 14.7383097 0 20 C0.125 23.375 0.125 23.375 0 26 C-3.31585333 23.13630849 -4.7036075 20.31363102 -5.26171875 15.95703125 C-5.55464779 10.08834936 -4.13566365 5.93646646 -1 1 C-0.67 0.67 -0.34 0.34 0 0 Z " fill="#9993A9" transform="translate(148,162)"/>
<path d="M0 0 C5.98511371 0.34302035 10.75117306 0.82307843 16 4 C16.25 11.625 16.25 11.625 14 15 C14 12.69 14 10.38 14 8 C9.38 5.69 4.76 3.38 0 1 C0 0.67 0 0.34 0 0 Z " fill="#8F99B5" transform="translate(284,185)"/>
<path d="M0 0 C4.01303508 1.556846 7.9092928 3.31138857 11.8125 5.125 C12.97394531 5.66382813 14.13539063 6.20265625 15.33203125 6.7578125 C16.21246094 7.16773438 17.09289062 7.57765625 18 8 C18 8.99 18 9.98 18 11 C11.48180123 9.10463724 5.82185199 6.4821006 0 3 C0 2.01 0 1.02 0 0 Z " fill="#DCE4EF" transform="translate(268,171)"/>
<path d="M0 0 C4.95 0 9.9 0 15 0 C15 0.66 15 1.32 15 2 C15.66 2 16.32 2 17 2 C17 2.99 17 3.98 17 5 C17.99 5.33 18.98 5.66 20 6 C17.75 6.75 17.75 6.75 15 7 C14.4121875 6.360625 13.824375 5.72125 13.21875 5.0625 C10.35459003 2.40004143 8.60385611 2.41755896 4.75 2.25 C3.67234375 2.19328125 2.5946875 2.1365625 1.484375 2.078125 C0.25460938 2.03945313 0.25460938 2.03945313 -1 2 C-0.67 1.34 -0.34 0.68 0 0 Z " fill="#FAF6D5" transform="translate(235,32)"/>
<path d="M0 0 C0.99 0.495 0.99 0.495 2 1 C2 1.66 2 2.32 2 3 C4.31 3.33 6.62 3.66 9 4 C9.061875 4.61875 9.12375 5.2375 9.1875 5.875 C9.828919 8.27761141 9.828919 8.27761141 12.5625 9.25 C13.366875 9.4975 14.17125 9.745 15 10 C11.06329512 11.31223496 8.87511856 10.24296256 5 9 C4.67 7.68 4.34 6.36 4 5 C2.68 4.67 1.36 4.34 0 4 C0 2.68 0 1.36 0 0 Z " fill="#E1BC9B" transform="translate(188,284)"/>
<path d="M0 0 C2.84652897 2.53024798 4.88868169 4.83302253 7 8 C7 9.32 7 10.64 7 12 C6.34 12 5.68 12 5 12 C5 10.35 5 8.7 5 7 C4.071875 6.773125 3.14375 6.54625 2.1875 6.3125 C-1 5 -1 5 -2.4375 2.375 C-3.2109375 1.199375 -3.2109375 1.199375 -4 0 C-7.62599422 -0.41725678 -7.62599422 -0.41725678 -11 0 C-11 -0.66 -11 -1.32 -11 -2 C-6.91295588 -3.79829941 -3.60779121 -2.1193751 0 0 Z " fill="#C4C3C1" transform="translate(220,266)"/>
<path d="M0 0 C0.33 0 0.66 0 1 0 C1 4.29 1 8.58 1 13 C-0.65 13 -2.3 13 -4 13 C-4.28571429 5.57142857 -4.28571429 5.57142857 -2 2 C-1.34 2 -0.68 2 0 2 C0 1.34 0 0.68 0 0 Z " fill="#EDF2F7" transform="translate(213,250)"/>
<path d="M0 0 C4.52405271 1.46366411 7.71041402 3.55741002 11 7 C11.375 10.8125 11.375 10.8125 11 14 C10.34 14 9.68 14 9 14 C6 8.25 6 8.25 6 6 C5.01 6 4.02 6 3 6 C3 5.01 3 4.02 3 3 C2.34 3 1.68 3 1 3 C0.67 2.01 0.34 1.02 0 0 Z " fill="#D4D3D0" transform="translate(249,31)"/>
<path d="M0 0 C0.33 0.66 0.66 1.32 1 2 C1.66 2.33 2.32 2.66 3 3 C0.94766315 5.2477975 -0.00667261 6.0022242 -3 7 C-4.3703055 8.97485205 -5.70672372 10.97386717 -7 13 C-7.33 13 -7.66 13 -8 13 C-8 11.35 -8 9.7 -8 8 C-7.34 8 -6.68 8 -6 8 C-5.896875 7.05125 -5.79375 6.1025 -5.6875 5.125 C-4.89960329 1.54365133 -3.89650761 0 0 0 Z " fill="#F3E5CD" transform="translate(154,159)"/>
<path d="M0 0 C2.52416204 2.52416204 2.32525352 3.49784796 2.375 7 C2.26533933 13.41093159 0.81028112 19.94155563 -3.63671875 24.78125 C-4.08660156 25.1834375 -4.53648437 25.585625 -5 26 C-5.66 25.67 -6.32 25.34 -7 25 C-6.38125 24.29875 -5.7625 23.5975 -5.125 22.875 C-1.36808781 17.7921188 -0.72676655 12.8395423 -0.375 6.625 C-0.30023438 5.37976562 -0.22546875 4.13453125 -0.1484375 2.8515625 C-0.09945313 1.91054688 -0.05046875 0.96953125 0 0 Z " fill="#9A96A6" transform="translate(263,46)"/>
<path d="M0 0 C2.99324263 1.0975223 3.84610901 1.67682892 5.25 4.625 C5.4975 5.40875 5.745 6.1925 6 7 C7.0725 6.649375 8.145 6.29875 9.25 5.9375 C12.78720743 5.05319814 13.74811124 4.97119449 17 6 C15.4447088 6.70365602 13.88035173 7.38729378 12.3125 8.0625 C11.44238281 8.44535156 10.57226562 8.82820312 9.67578125 9.22265625 C6.67786136 10.0935848 4.96719847 9.85006226 2 9 C2.04125 8.071875 2.0825 7.14375 2.125 6.1875 C2.27136339 2.84190281 2.27136339 2.84190281 0 0 Z " fill="#A8A4B0" transform="translate(173,161)"/>
<path d="M0 0 C0.33 0 0.66 0 1 0 C1.18404685 5.33735863 0.75443544 8.93163096 -1 14 C-1.53367105 17.15686952 -2.00056752 20.31661956 -2.4375 23.48828125 C-2.623125 24.31714844 -2.80875 25.14601562 -3 26 C-3.66 26.33 -4.32 26.66 -5 27 C-4.39828638 20.67250629 -3.37848091 14.62404348 -1.9375 8.4375 C-1.75123047 7.61958984 -1.56496094 6.80167969 -1.37304688 5.95898438 C-0.91979313 3.97164104 -0.46053788 1.98566799 0 0 Z " fill="#97A1C0" transform="translate(221,198)"/>
<path d="M0 0 C0.33 0 0.66 0 1 0 C1.23341328 6.30215855 0.39477733 11.86486456 -1 18 C-1.28617188 19.30517578 -1.28617188 19.30517578 -1.578125 20.63671875 C-2.04466097 22.7594574 -2.52128463 24.87997481 -3 27 C-3.33 27 -3.66 27 -4 27 C-4.18135367 21.92209711 -3.81639572 17.8232321 -2.4375 12.94921875 C-1.86312478 10.72312429 -1.86312478 10.72312429 -2 7.25 C-2 4.08177944 -1.67781942 2.62159285 0 0 Z " fill="#8F95AF" transform="translate(229,186)"/>
<path d="M0 0 C0.66 0.99 1.32 1.98 2 3 C-1.55290564 4.18430188 -4.80250456 4.18397858 -8.5 4.1875 C-9.51513672 4.20586914 -9.51513672 4.20586914 -10.55078125 4.22460938 C-14.26357044 4.23559396 -15.82983076 4.11344616 -19 2 C-15.20795281 1.30350154 -12.20613726 0.96801318 -8.375 1.5625 C-4.79327067 2.02679825 -3.16134217 1.62857021 0 0 Z " fill="#DDB896" transform="translate(171,178)"/>
<path d="M0 0 C0.268125 0.61875 0.53625 1.2375 0.8125 1.875 C1.95556848 4.2995233 1.95556848 4.2995233 5 6 C1.12315913 7.19287411 -1.91621923 8 -6 8 C-6 6.02 -6 4.04 -6 2 C-3.525 2.495 -3.525 2.495 -1 3 C-0.67 2.01 -0.34 1.02 0 0 Z " fill="#8797A9" transform="translate(240,111)"/>
<path d="M0 0 C1.485 0.99 1.485 0.99 3 2 C3.1875 4.625 3.1875 4.625 3 7 C3.66 7 4.32 7 5 7 C5 7.66 5 8.32 5 9 C6.32 9.66 7.64 10.32 9 11 C9 11.99 9 12.98 9 14 C9.33 14.66 9.66 15.32 10 16 C5.48031381 14.224409 3.26529801 11.02447681 0.75 7 C-0.16040138 4.57226299 -0.14287008 2.57166137 0 0 Z " fill="#8F899F" transform="translate(185,288)"/>
<path d="M0 0 C1.23104155 3.68400584 0.90767252 6.91474976 0.5625 10.75 C0.46066406 11.92046875 0.35882813 13.0909375 0.25390625 14.296875 C0.17011719 15.18890625 0.08632812 16.0809375 0 17 C-0.33 16.01 -0.66 15.02 -1 14 C-1.99 13.67 -2.98 13.34 -4 13 C-3.71682074 11.39431334 -3.42312209 9.79047953 -3.125 8.1875 C-2.96257812 7.29417969 -2.80015625 6.40085937 -2.6328125 5.48046875 C-2 3 -2 3 0 0 Z " fill="#C1B3B0" transform="translate(188,272)"/>
<path d="M0 0 C1.1446875 0.3403125 1.1446875 0.3403125 2.3125 0.6875 C-2.6875 7.25892857 -2.6875 7.25892857 -7.6875 8.6875 C-5.0095 -0.5825 -5.0095 -0.5825 0 0 Z " fill="#D7D0C9" transform="translate(195.6875,266.3125)"/>
<path d="M0 0 C0.33 0 0.66 0 1 0 C1.19392201 5.52677733 0.7479503 9.75614911 -1 15 C-1.99 14.67 -2.98 14.34 -4 14 C-3.67 11.36 -3.34 8.72 -3 6 C-2.34 6 -1.68 6 -1 6 C-0.67 4.02 -0.34 2.04 0 0 Z " fill="#F4F7FD" transform="translate(224,200)"/>
<path d="M0 0 C2.375 0.625 2.375 0.625 5 2 C6.3125 5.125 6.3125 5.125 7 8 C5 8 3 8 1 8 C-0.42944945 5.64561267 -1.08661261 4.51967567 -0.625 1.75 C-0.41875 1.1725 -0.2125 0.595 0 0 Z " fill="#1C5D7A" transform="translate(265,132)"/>
<path d="M0 0 C1.98 1.32 3.96 2.64 6 4 C3.52414762 6.65269897 1.40973899 8.68010103 -2 10 C-2.99 10 -3.98 10 -5 10 C-5 9.34 -5 8.68 -5 8 C-3.68 7.67 -2.36 7.34 -1 7 C-0.67 4.69 -0.34 2.38 0 0 Z " fill="#0E556D" transform="translate(255,122)"/>
<path d="M0 0 C-1.4595886 3.8480063 -3.33899114 5.21206544 -7 7 C-9.8125 7.6875 -9.8125 7.6875 -12 8 C-12 7.34 -12 6.68 -12 6 C-10.68 6 -9.36 6 -8 6 C-8 5.01 -8 4.02 -8 3 C-7.34 3 -6.68 3 -6 3 C-6 2.34 -6 1.68 -6 1 C-3 0 -3 0 0 0 Z " fill="#BBA391" transform="translate(337,208)"/>
<path d="M0 0 C2.49361571 1.20381448 4.68143083 2.45428722 7 4 C7 4.66 7 5.32 7 6 C6.01 6.33 5.02 6.66 4 7 C3.34 6.67 2.68 6.34 2 6 C1.67 6.99 1.34 7.98 1 9 C0 8 0 8 -0.09765625 6.15234375 C-0.06510417 4.1015625 -0.03255208 2.05078125 0 0 Z " fill="#C6B8B2" transform="translate(300,189)"/>
<path d="M0 0 C0.6875 1.6875 0.6875 1.6875 1 4 C-0.64076492 7.44560634 -1.78512442 8.85674962 -5 11 C-7.6875 11.125 -7.6875 11.125 -10 11 C-10.33 10.34 -10.66 9.68 -11 9 C-9.9171875 8.938125 -9.9171875 8.938125 -8.8125 8.875 C-4.7314785 7.60534887 -3.51468974 5.42277215 -1 2 C-0.67 1.34 -0.34 0.68 0 0 Z " fill="#EDC4A8" transform="translate(227,280)"/>
<path d="M0 0 C0.66 0 1.32 0 2 0 C2.20496094 0.68707031 2.40992188 1.37414062 2.62109375 2.08203125 C2.89050781 2.98308594 3.15992188 3.88414062 3.4375 4.8125 C3.83775391 6.15248047 3.83775391 6.15248047 4.24609375 7.51953125 C4.80387873 9.35473055 5.39344575 11.18033726 6 13 C3.52592708 12.67012361 2.3362233 12.42027913 0.75 10.4375 C-0.34127575 6.89085382 -0.12349053 3.70471601 0 0 Z " fill="#A0989D" transform="translate(299,197)"/>
<path d="M0 0 C0 0.33 0 0.66 0 1 C-0.95261719 1.04898438 -1.90523438 1.09796875 -2.88671875 1.1484375 C-4.14097656 1.22320312 -5.39523437 1.29796875 -6.6875 1.375 C-8.54955078 1.47941406 -8.54955078 1.47941406 -10.44921875 1.5859375 C-13.69317772 1.96422094 -16.06567185 2.61979976 -19 4 C-17.54984894 0.25377644 -17.54984894 0.25377644 -15.375 -0.75 C-10.1098793 -1.30422323 -5.14219812 -1.28554953 0 0 Z " fill="#EEEFE7" transform="translate(327,180)"/>
<path d="M0 0 C0.66 0.33 1.32 0.66 2 1 C1.34 2.98 0.68 4.96 0 7 C-0.66 7 -1.32 7 -2 7 C-2 7.66 -2 8.32 -2 9 C-3.32 9 -4.64 9 -6 9 C-4.83857315 4.64464931 -3.92300495 2.35380297 0 0 Z " fill="#EDCBAF" transform="translate(224,41)"/>
<path d="M0 0 C3.80013925 1.49291185 5.74918216 3.62377323 8 7 C8 8.32 8 9.64 8 11 C4.26360784 9.75453595 3.81243487 8.36595047 2 5 C2.33 4.67 2.66 4.34 3 4 C2.2575 3.2884375 2.2575 3.2884375 1.5 2.5625 C0 1 0 1 0 0 Z " fill="#BFBCBD" transform="translate(330,181)"/>
<path d="M0 0 C2.625 0.375 2.625 0.375 5 1 C5 2.65 5 4.3 5 6 C2.69 5.67 0.38 5.34 -2 5 C-2 2 -2 2 0 0 Z " fill="#023A49" transform="translate(220,177)"/>
<path d="M0 0 C0.33 0.66 0.66 1.32 1 2 C1.99 2 2.98 2 4 2 C4 3.32 4 4.64 4 6 C4.99 6.33 5.98 6.66 7 7 C8.6875 10.0625 8.6875 10.0625 10 13 C6.63834194 11.58956521 4.90494768 9.98473966 2.75 7.0625 C2.22921875 6.37285156 1.7084375 5.68320313 1.171875 4.97265625 C0 3 0 3 0 0 Z " fill="#9A97A9" transform="translate(217,62)"/>
<path d="M0 0 C3.78786597 0.5260925 6.17152224 1.38103911 9 4 C9 4.66 9 5.32 9 6 C6.36 5.67 3.72 5.34 1 5 C0.67 3.35 0.34 1.7 0 0 Z " fill="#EAC19F" transform="translate(305,196)"/>
<path d="M0 0 C0.66 0 1.32 0 2 0 C3.38232443 1.62626404 4.71937515 3.2925002 6 5 C5.67 5.66 5.34 6.32 5 7 C3.35 6.67 1.7 6.34 0 6 C-0.38218767 4.34385343 -0.71395102 2.67542976 -1 1 C-0.67 0.67 -0.34 0.34 0 0 Z " fill="#0A3952" transform="translate(210,169)"/>
<path d="M0 0 C0.99 0 1.98 0 3 0 C4.75 1.8125 4.75 1.8125 6 4 C5.67 4.99 5.34 5.98 5 7 C2 7 2 7 0 6 C-0.6875 4.0625 -0.6875 4.0625 -1 2 C-0.67 1.34 -0.34 0.68 0 0 Z " fill="#FCEEC4" transform="translate(329,185)"/>
<path d="M0 0 C1.36959468 3.11271517 0.90994332 4.25666155 -0.25 7.5625 C-1.72532525 10.46046031 -2.70555087 11.87956808 -5 14 C-4.69106068 12.3743193 -4.3777305 10.74947252 -4.0625 9.125 C-3.80146484 7.76761719 -3.80146484 7.76761719 -3.53515625 6.3828125 C-3 4 -3 4 -2 2 C-1.34 2 -0.68 2 0 2 C0 1.34 0 0.68 0 0 Z " fill="#B8A398" transform="translate(262,56)"/>
<path d="M0 0 C0.66 0.33 1.32 0.66 2 1 C1.67 2.32 1.34 3.64 1 5 C-1.97 5.66 -4.94 6.32 -8 7 C-5.4837822 4.39391727 -2.94865641 2.10618315 0 0 Z " fill="#F3CBA9" transform="translate(336,195)"/>
<path d="M0 0 C5.06998019 0.65419099 9.41990777 2.8546409 14 5 C9.4523494 6.51588353 5.81353917 4.83701808 1.5625 2.875 C1.046875 2.58625 0.53125 2.2975 0 2 C0 1.34 0 0.68 0 0 Z " fill="#ADB4C0" transform="translate(279,180)"/>
<path d="M0 0 C-4.59060079 3.06040053 -8.42083266 4.15039689 -13.9375 3.625 C-14.948125 3.41875 -15.95875 3.2125 -17 3 C-17 2.67 -17 2.34 -17 2 C-14.73139163 1.4695592 -12.46001511 0.95094566 -10.1875 0.4375 C-8.29064453 0.00244141 -8.29064453 0.00244141 -6.35546875 -0.44140625 C-3 -1 -3 -1 0 0 Z " fill="#E3BC9A" transform="translate(222,292)"/>
<path d="M0 0 C1.98 0 3.96 0 6 0 C5.01 0.66 4.02 1.32 3 2 C2.0595159 4.37948379 2.0595159 4.37948379 1.4375 7.0625 C0.74609375 9.78515625 0.74609375 9.78515625 0 12 C-0.99 12.495 -0.99 12.495 -2 13 C-1.34 8.71 -0.68 4.42 0 0 Z " fill="#878A98" transform="translate(179,174)"/>
<path d="M0 0 C-0.99 0.495 -0.99 0.495 -2 1 C-2.72693904 2.97888961 -3.39816251 4.97954558 -4 7 C-4.66 6.67 -5.32 6.34 -6 6 C-6 5.01 -6 4.02 -6 3 C-6.99 2.67 -7.98 2.34 -9 2 C-5.5647952 -0.29013653 -4.014669 -0.17842973 0 0 Z " fill="#CCA889" transform="translate(262,57)"/>
<path d="M0 0 C0.66 0 1.32 0 2 0 C2.66 0.66 3.32 1.32 4 2 C4.99 2.33 5.98 2.66 7 3 C8.1875 5.5625 8.1875 5.5625 9 8 C8.34 8 7.68 8 7 8 C7 7.34 7 6.68 7 6 C5.02 6 3.04 6 1 6 C0.67 4.02 0.34 2.04 0 0 Z " fill="#C8AD97" transform="translate(185,286)"/>
<path d="M0 0 C0.66 0.33 1.32 0.66 2 1 C0.05175296 5.51173 -1.75314154 8.41045216 -6 11 C-8.3125 10.75 -8.3125 10.75 -10 10 C-9.01 10 -8.02 10 -7 10 C-7 9.34 -7 8.68 -7 8 C-6.030625 7.195625 -5.06125 6.39125 -4.0625 5.5625 C-0.80624673 3.29315623 -0.80624673 3.29315623 0 0 Z " fill="#B39F95" transform="translate(177,181)"/>
<path d="M0 0 C0.66 0.99 1.32 1.98 2 3 C2.53625 3.515625 3.0725 4.03125 3.625 4.5625 C5 6 5 6 5 8 C2.03 7.67 -0.94 7.34 -4 7 C-2.68 4.69 -1.36 2.38 0 0 Z " fill="#7E95A7" transform="translate(267,171)"/>
<path d="M0 0 C0.33 0.66 0.66 1.32 1 2 C-2.75 3.125 -2.75 3.125 -5 2 C-5 2.66 -5 3.32 -5 4 C-7.31 3.67 -9.62 3.34 -12 3 C-11.67 2.34 -11.34 1.68 -11 1 C-7.318488 -0.05186057 -3.80944893 -0.08859184 0 0 Z " fill="#FAFADA" transform="translate(165,159)"/>
<path d="M0 0 C0.99 0.33 1.98 0.66 3 1 C3.6875 3.0625 3.6875 3.0625 4 5 C3.34 5 2.68 5 2 5 C1.67 5.99 1.34 6.98 1 8 C0.34 7.67 -0.32 7.34 -1 7 C-1.75 4.5625 -1.75 4.5625 -2 2 C-1.34 1.34 -0.68 0.68 0 0 Z " fill="#F5D9B5" transform="translate(171,169)"/>
<path d="M0 0 C0 0.99 0 1.98 0 3 C-4.455 3.495 -4.455 3.495 -9 4 C-9 3.34 -9 2.68 -9 2 C-5.5647952 -0.29013653 -4.014669 -0.17842973 0 0 Z " fill="#DCB695" transform="translate(262,54)"/>
<path d="M0 0 C0.66 0.33 1.32 0.66 2 1 C1.67 3.64 1.34 6.28 1 9 C0.67 9 0.34 9 0 9 C0 7.35 0 5.7 0 4 C-1.65 4 -3.3 4 -5 4 C-5 3.34 -5 2.68 -5 2 C-2.625 0.9375 -2.625 0.9375 0 0 Z " fill="#C1B4AA" transform="translate(178,172)"/>
<path d="M0 0 C0.99 0.495 0.99 0.495 2 1 C2 1.66 2 2.32 2 3 C4.31 3.33 6.62 3.66 9 4 C9 4.66 9 5.32 9 6 C6.36 5.67 3.72 5.34 1 5 C0.67 3.35 0.34 1.7 0 0 Z " fill="#EAC19E" transform="translate(188,284)"/>
<path d="M0 0 C0.66 0.33 1.32 0.66 2 1 C0.60667426 4.36720387 -0.9789286 5.9859524 -4 8 C-4.33 6.68 -4.66 5.36 -5 4 C-3.35 2.68 -1.7 1.36 0 0 Z " fill="#B7B6C2" transform="translate(308,180)"/>
<path d="M0 0 C2.8125 -0.3125 2.8125 -0.3125 6 0 C7.875 2.5 7.875 2.5 9 5 C8.01 5.33 7.02 5.66 6 6 C6 5.01 6 4.02 6 3 C4.02 2.34 2.04 1.68 0 1 C0 0.67 0 0.34 0 0 Z " fill="#F9F7D9" transform="translate(210,265)"/>
<path d="M0 0 C0.97608217 2.92824652 1.08226668 4.95613276 1 8 C0.01 8.33 -0.98 8.66 -2 9 C-2.25 3.375 -2.25 3.375 0 0 Z " fill="#F7FBFE" transform="translate(220,218)"/>
<path d="M0 0 C0.33 0 0.66 0 1 0 C1 2.64 1 5.28 1 8 C-2.13349732 9.04449911 -2.98968256 8.93423645 -6 8 C-5.01 7.67 -4.02 7.34 -3 7 C-0.64046906 4.64046906 -0.50858587 3.22104383 0 0 Z M-8 9 C-6 10 -6 10 -6 10 Z " fill="#D8B9A4" transform="translate(338,194)"/>
<path d="M0 0 C0.66 0.99 1.32 1.98 2 3 C1.67 3.99 1.34 4.98 1 6 C0.34 6 -0.32 6 -1 6 C-1.33 7.32 -1.66 8.64 -2 10 C-2.1953125 3.9453125 -2.1953125 3.9453125 -2 2 C-1.34 1.34 -0.68 0.68 0 0 Z " fill="#F4D6B8" transform="translate(190,274)"/>
<path d="M0 0 C-0.33 1.65 -0.66 3.3 -1 5 C-2.32 4.67 -3.64 4.34 -5 4 C-4.34 4 -3.68 4 -3 4 C-3.99 2.68 -4.98 1.36 -6 0 C-3 -1 -3 -1 0 0 Z " fill="#EFD8BB" transform="translate(310,191)"/>
<path d="M0 0 C1.11375 0.556875 1.11375 0.556875 2.25 1.125 C2.25 2.115 2.25 3.105 2.25 4.125 C-0.72 3.135 -3.69 2.145 -6.75 1.125 C-2.75 -0.875 -2.75 -0.875 0 0 Z " fill="#D6DBE8" transform="translate(283.75,177.875)"/>
<path d="M0 0 C1.65 0 3.3 0 5 0 C5.25 6.625 5.25 6.625 3 10 C3.0928125 8.3603125 3.0928125 8.3603125 3.1875 6.6875 C3.35597914 3.07873917 3.35597914 3.07873917 1.5 1.0625 C1.005 0.711875 0.51 0.36125 0 0 Z " fill="#7C7DA2" transform="translate(295,190)"/>
<path d="M0 0 C-0.1875 1.8125 -0.1875 1.8125 -1 4 C-3.5625 5.75 -3.5625 5.75 -6 7 C-5.39816251 4.97954558 -4.72693904 2.97888961 -4 1 C-2 0 -2 0 0 0 Z " fill="#CECDD0" transform="translate(154,159)"/>
<path d="M0 0 C0.66 0 1.32 0 2 0 C1.4140625 6.15234375 1.4140625 6.15234375 1 8 C0.01 8.495 0.01 8.495 -1 9 C-0.67 6.03 -0.34 3.06 0 0 Z " fill="#A7B6CB" transform="translate(217,216)"/>
<path d="M0 0 C-1.36983503 3.16115776 -1.9890638 3.9927092 -5 6 C-5 4.35 -5 2.7 -5 1 C-3 0 -3 0 0 0 Z " fill="#9F9294" transform="translate(337,208)"/>
<path d="M0 0 C0.33 0 0.66 0 1 0 C1.1953125 6.0546875 1.1953125 6.0546875 1 8 C0.34 8.66 -0.32 9.32 -1 10 C-2.23076923 4.58461538 -2.23076923 4.58461538 -1.0625 1.625 C-0.5365625 0.820625 -0.5365625 0.820625 0 0 Z " fill="#9DA4AF" transform="translate(229,186)"/>
<path d="M0 0 C0.86625 0.3403125 0.86625 0.3403125 1.75 0.6875 C0.574375 1.3371875 0.574375 1.3371875 -0.625 2 C-3.46698375 3.57970247 -3.46698375 3.57970247 -5.25 6.6875 C-5.58 5.3675 -5.91 4.0475 -6.25 2.6875 C-2.80384615 -0.38942308 -2.80384615 -0.38942308 0 0 Z " fill="#F6E7CF" transform="translate(311.25,183.3125)"/>
<path d="M0 0 C1.70884005 1.62339805 3.37446717 3.29319053 5 5 C5 5.66 5 6.32 5 7 C3.35 6.67 1.7 6.34 0 6 C0 4.02 0 2.04 0 0 Z " fill="#E4C1A7" transform="translate(145,170)"/>
<path d="M0 0 C0.99 0 1.98 0 3 0 C2.67 1.65 2.34 3.3 2 5 C1.01 5 0.02 5 -1 5 C-0.67 3.35 -0.34 1.7 0 0 Z " fill="#0C3C4B" transform="translate(265,168)"/>
<path d="M0 0 C0.66 0.33 1.32 0.66 2 1 C1.34 3.97 0.68 6.94 0 10 C-0.33 10 -0.66 10 -1 10 C-1.125 2.25 -1.125 2.25 0 0 Z " fill="#063950" transform="translate(204,149)"/>
<path d="M0 0 C0.66 0.66 1.32 1.32 2 2 C1.67 2.66 1.34 3.32 1 4 C-0.98 4 -2.96 4 -5 4 C-5 3.34 -5 2.68 -5 2 C-3.35 1.34 -1.7 0.68 0 0 Z " fill="#C3A186" transform="translate(246,72)"/>
<path d="M0 0 C2.2477975 2.05233685 3.0022242 3.00667261 4 6 C3.34 6.66 2.68 7.32 2 8 C0 6 0 6 -0.125 2.875 C-0.08375 1.92625 -0.0425 0.9775 0 0 Z " fill="#C6BDC8" transform="translate(260,40)"/>
<path d="M0 0 C1.98 0.99 1.98 0.99 4 2 C4 2.99 4 3.98 4 5 C4.33 5.66 4.66 6.32 5 7 C3.0625 6.3125 3.0625 6.3125 1 5 C0.25 2.375 0.25 2.375 0 0 Z " fill="#9E9496" transform="translate(190,297)"/>
<path d="M0 0 C0.33 0 0.66 0 1 0 C0.67 2.64 0.34 5.28 0 8 C-1.65 7.67 -3.3 7.34 -5 7 C-4.0409375 6.1028125 -4.0409375 6.1028125 -3.0625 5.1875 C-0.79689611 3.09189663 -0.79689611 3.09189663 0 0 Z " fill="#D4B6A4" transform="translate(227,284)"/>
<path d="M0 0 C2.375 0.3125 2.375 0.3125 5 1 C5.66 1.99 6.32 2.98 7 4 C2.25 3.125 2.25 3.125 0 2 C0 1.34 0 0.68 0 0 Z " fill="#F0EAEA" transform="translate(300,187)"/>
<path d="" fill="#0000FF" transform="translate(0,0)"/>
<path d="" fill="#0000FF" transform="translate(0,0)"/>
<path d="" fill="#0000FF" transform="translate(0,0)"/>
<path d="" fill="#0000FF" transform="translate(0,0)"/>
<path d="" fill="#0000FF" transform="translate(0,0)"/>
<path d="" fill="#0000FF" transform="translate(0,0)"/>
<path d="" fill="#0000FF" transform="translate(0,0)"/>
<path d="" fill="#0000FF" transform="translate(0,0)"/>
<path d="" fill="#0000FF" transform="translate(0,0)"/>
<path d="" fill="#0000FF" transform="translate(0,0)"/>
<path d="" fill="#0000FF" transform="translate(0,0)"/>
<path d="" fill="#0000FF" transform="translate(0,0)"/>
<path d="" fill="#0000FF" transform="translate(0,0)"/>
<path d="" fill="#0000FF" transform="translate(0,0)"/>
<path d="" fill="#0000FF" transform="translate(0,0)"/>
<path d="" fill="#0000FF" transform="translate(0,0)"/>
<path d="" fill="#0000FF" transform="translate(0,0)"/>
<path d="" fill="#0000FF" transform="translate(0,0)"/>
<path d="" fill="#0000FF" transform="translate(0,0)"/>
<path d="" fill="#0000FF" transform="translate(0,0)"/>
<path d="" fill="#0000FF" transform="translate(0,0)"/>
<path d="" fill="#0000FF" transform="translate(0,0)"/>
<path d="" fill="#0000FF" transform="translate(0,0)"/>
<path d="" fill="#0000FF" transform="translate(0,0)"/>
<path d="" fill="#0000FF" transform="translate(0,0)"/>
<path d="" fill="#0000FF" transform="translate(0,0)"/>
<path d="" fill="#0000FF" transform="translate(0,0)"/>
<path d="" fill="#0000FF" transform="translate(0,0)"/>
<path d="" fill="#0000FF" transform="translate(0,0)"/>
<path d="" fill="#0000FF" transform="translate(0,0)"/>
<path d="" fill="#0000FF" transform="translate(0,0)"/>
<path d="" fill="#0000FF" transform="translate(0,0)"/>
<path d="" fill="#0000FF" transform="translate(0,0)"/>
<path d="" fill="#0000FF" transform="translate(0,0)"/>
<path d="" fill="#0000FF" transform="translate(0,0)"/>
<path d="" fill="#0000FF" transform="translate(0,0)"/>
<path d="" fill="#0000FF" transform="translate(0,0)"/>
<path d="" fill="#0000FF" transform="translate(0,0)"/>
<path d="" fill="#0000FF" transform="translate(0,0)"/>
<path d="" fill="#0000FF" transform="translate(0,0)"/>
<path d="" fill="#0000FF" transform="translate(0,0)"/>
<path d="" fill="#0000FF" transform="translate(0,0)"/>
<path d="" fill="#0000FF" transform="translate(0,0)"/>
<path d="" fill="#0000FF" transform="translate(0,0)"/>
<path d="" fill="#0000FF" transform="translate(0,0)"/>
<path d="" fill="#00FFFF" transform="translate(0,0)"/>
<path d="" fill="#00FFFF" transform="translate(0,0)"/>
<path d="" fill="#0000FF" transform="translate(0,0)"/>
<path d="" fill="#0000FF" transform="translate(0,0)"/>
<path d="" fill="#00FFFF" transform="translate(0,0)"/>
<path d="" fill="#00FFFF" transform="translate(0,0)"/>
<path d="" fill="#00FFFF" transform="translate(0,0)"/>
<path d="" fill="#00FFFF" transform="translate(0,0)"/>
<path d="" fill="#00FFFF" transform="translate(0,0)"/>
<path d="" fill="#00FFFF" transform="translate(0,0)"/>
<path d="" fill="#00FFFF" transform="translate(0,0)"/>
<path d="" fill="#00FFFF" transform="translate(0,0)"/>
<path d="" fill="#00FFFF" transform="translate(0,0)"/>
<path d="" fill="#00FFFF" transform="translate(0,0)"/>
<path d="" fill="#00FFFF" transform="translate(0,0)"/>
<path d="" fill="#00FFFF" transform="translate(0,0)"/>
<path d="" fill="#00FFFF" transform="translate(0,0)"/>
<path d="" fill="#00FFFF" transform="translate(0,0)"/>
<path d="" fill="#FFFFFF" transform="translate(0,0)"/>
<path d="" fill="#00FFFF" transform="translate(0,0)"/>
<path d="" fill="#00FFFF" transform="translate(0,0)"/>
<path d="" fill="#00FFFF" transform="translate(0,0)"/>
<path d="" fill="#FFFFFF" transform="translate(0,0)"/>
<path d="" fill="#FFFFFF" transform="translate(0,0)"/>
<path d="" fill="#FFFFFF" transform="translate(0,0)"/>
<path d="" fill="#00FFFF" transform="translate(0,0)"/>
<path d="" fill="#FFFFFF" transform="translate(0,0)"/>
<path d="" fill="#FFFFFF" transform="translate(0,0)"/>
</svg>
